<?xml version="1.0" encoding="utf-8"?>
<!-- Generator: Adobe Illustrator 25.0.1, SVG Export Plug-In . SVG Version: 6.00 Build 0)  -->
<svg version="1.1" id="Layer_1" xmlns="http://www.w3.org/2000/svg" xmlns:xlink="http://www.w3.org/1999/xlink" x="0px" y="0px"
	 viewBox="0 0 100 100" style="enable-background:new 0 0 100 100;" xml:space="preserve">
<style type="text/css">
	.st0{fill:#FF9000;}
	.st1{fill:none;stroke:#FFC900;stroke-width:3;stroke-miterlimit:10;}
	.st2{fill:none;stroke:#E32D00;stroke-width:3;stroke-miterlimit:10;}
</style>
<rect x="63.5" y="12.4" class="st0" width="26.9" height="24.9"/>
<line class="st1" x1="8.9" y1="100" x2="8.9" y2="0"/>
<line class="st1" x1="62.7" y1="100" x2="62.7" y2="0"/>
<line class="st2" x1="0" y1="13.1" x2="100" y2="13.1"/>
<line class="st2" x1="0" y1="38" x2="100" y2="38"/>
<line class="st2" x1="0" y1="62.9" x2="100" y2="62.9"/>
<line class="st2" x1="0" y1="87.8" x2="100" y2="87.8"/>
<line class="st1" x1="35.8" y1="100" x2="35.8" y2="0"/>
<line class="st1" x1="89.5" y1="100" x2="89.5" y2="0"/>
<rect x="8.9" y="38" class="st2" width="19.8" height="0"/>
<rect x="75.9" y="87.8" class="st2" width="19.8" height="0"/>
<rect x="25" y="38" class="st2" width="19.8" height="0"/>
<rect x="79.7" y="38" class="st2" width="19.8" height="0"/>
<rect x="25" y="87.8" class="st2" width="19.8" height="0"/>
<rect x="8.8" y="87.8" class="st2" width="19.8" height="0"/>
<line class="st1" x1="8.9" y1="51.4" x2="8.9" y2="24.4"/>
<line class="st1" x1="62.7" y1="51.4" x2="62.7" y2="24.4"/>
<line class="st1" x1="8.9" y1="100" x2="8.9" y2="73"/>
<line class="st1" x1="62.7" y1="100" x2="62.7" y2="73"/>
</svg>
